<?xml version="1.0" encoding="UTF-8"?><svg id="ohwatafeeling" xmlns="http://www.w3.org/2000/svg" viewBox="0 0 400 30"><defs><style>.cls-1{fill:#e40a1c;}</style></defs><path class="cls-1" d="m1.4,15C1.4,6.2,7.7.5,16.2.5s14.8,5.7,14.8,14.4-6.3,14.6-14.9,14.6S1.4,23.8,1.4,15Zm22.7,0c0-4.8-3.3-8.2-7.9-8.2s-7.9,3.3-7.9,8.2,3.2,8.2,7.9,8.2,7.9-3.4,7.9-8.2Z"/><path class="cls-1" d="m59.8.9v28.2h-6.7v-11.2h-11v11.2h-6.7V.9h6.7v11.2h11V.9h6.7Z"/><path class="cls-1" d="m112.5.9l-8.3,28.2h-7l-5.4-18.8-5.5,18.8h-6.9L71,.9h7.3l5.2,19.4L88.8.9h6.6l5.4,19.3L106,.9h6.5Z"/><path class="cls-1" d="m140,.9v28.2h-6.7v-11.2h-11v11.2h-6.7V.9h6.7v11.2h11V.9h6.7Z"/><path class="cls-1" d="m161.7,21.8h-9.2l-2.4,7.3h-6.7L153.7.9h7.3l10.2,28.2h-7l-2.5-7.3Zm-1.7-5.2l-2.9-8.5-2.8,8.5h5.7Z"/><path class="cls-1" d="m190.7,6.7h-7.1v22.4h-6.7V6.7h-7.2V.9h21v5.8Z"/><path class="cls-1" d="m218.2,21.8h-9.2l-2.4,7.3h-6.7L210.1.9h7.3l10.2,28.2h-7l-2.5-7.3Zm-1.7-5.2l-2.9-8.5-2.8,8.5h5.7Z"/><path class="cls-1" d="m239.2.9h17.5v5.8h-10.9v5.6h10.3v5.8h-10.3v10.9h-6.7V.9Z"/><path class="cls-1" d="m261,.9h17.7v5.8h-11v5.4h10.7v5.6h-10.7v5.4h11.3v5.8h-18V.9Z"/><path class="cls-1" d="m284.3.9h17.7v5.8h-11v5.4h10.7v5.6h-10.7v5.4h11.3v5.8h-18V.9Z"/><path class="cls-1" d="m325,23.1v6h-17.4V.9h6.7v22.2h10.7Z"/><path class="cls-1" d="m328.8.9h6.7v28.2h-6.7V.9Z"/><path class="cls-1" d="m366.6.9v28.2h-6.4l-12.3-18v18h-6.3V.9h6.5l12.3,18V.9h6.3Z"/><path class="cls-1" d="m398.6,13.6v15.5h-6v-3.1c-1.5,1.8-4.3,3.5-8.3,3.5-7.5,0-13.3-5.8-13.3-14.4s6.6-14.6,14.9-14.6,7.8,1.5,10.6,3.3l-2.4,6c-2.3-1.8-5-3.1-8.1-3.1-4.3,0-7.9,2.7-7.9,8.4s3.2,8.1,7.4,8.1,6.1-2.1,6.7-4.3h-6.9v-5.2h13.4Z"/></svg>