<?xml version="1.0" encoding="UTF-8"?><svg id="Layer_1" xmlns="http://www.w3.org/2000/svg" viewBox="0 0 500 100"><defs><style>.cls-1{fill:#fff;}</style></defs><path class="cls-1" d="m6.31,33.32h12.77c10.56,0,17.95,6.91,17.95,16.8s-7.39,16.8-17.95,16.8H6.31v-33.6Zm12.67,27.46c6,0,10.23-4.37,10.23-10.66s-4.23-10.66-10.23-10.66h-4.99v21.31h4.99Z"/><path class="cls-1" d="m45.76,33.32h23.67v6.05h-15.89v7.73h14.16v5.71h-14.16v7.97h16.08v6.14h-23.86v-33.6Z"/><path class="cls-1" d="m78.86,33.32h7.82l14.45,22.66-.38-22.66h7.54v33.6h-7.83l-14.45-22.66.38,22.66h-7.54v-33.6Z"/><path class="cls-1" d="m126.24,39.46h-9.41v-6.14h26.59v6.14h-9.41v27.46h-7.78v-27.46Z"/><path class="cls-1" d="m147.42,56.31l7.49-.48c0,3.55,2.69,5.95,6.53,5.95,3.26,0,5.57-1.63,5.57-4.08,0-2.11-1.44-3.41-4.03-3.84l-4.18-.58c-7.39-1.01-10.42-5.14-10.42-10.27,0-6.29,5.18-10.61,12.72-10.61,7.1,0,12.63,4.7,12.58,10.85l-7.63.38c-.05-3.12-2.16-5.28-5.28-5.28-2.83,0-4.8,1.58-4.8,3.94,0,1.97,1.25,3.26,3.6,3.65l4.18.62c7.44.96,10.9,5.18,10.9,10.42,0,6.43-5.47,10.85-13.44,10.85s-13.78-4.7-13.78-11.52Z"/><path class="cls-1" d="m182.76,53.48v-20.16h7.78v19.92c0,4.61,2.64,7.44,6.86,7.44s6.86-2.83,6.86-7.44v-19.92h7.78v20.16c0,8.4-5.95,14.11-14.64,14.11s-14.64-5.71-14.64-14.11Z"/><path class="cls-1" d="m233.34,50.12c0-9.94,7.63-17.71,17.57-17.71,9.12,0,16.37,6,16.51,13.92l-7.54.62c-.19-4.51-3.89-7.73-8.98-7.73-5.66,0-9.74,4.46-9.74,10.9s3.98,10.8,9.74,10.8c4.94,0,8.69-3.22,8.98-7.92l7.49.58c-.1,8.02-7.3,14.26-16.47,14.26-9.84,0-17.57-7.68-17.57-17.71Z"/><path class="cls-1" d="m277.32,33.32h14.69c7.15,0,12.15,4.03,12.15,9.89,0,4.27-3.26,7.54-7.92,8.06,4.32.24,6.82,2.74,7.06,7.25l.29,4.99c.05,1.58.24,2.54.62,3.41h-7.78c-.29-.77-.43-1.82-.53-2.83l-.24-4.99c-.19-2.93-1.78-4.32-4.85-4.32h-5.81v12.14h-7.68v-33.6Zm14.3,15.41c2.78,0,4.7-1.87,4.7-4.56s-1.92-4.7-4.7-4.7h-6.62v9.26h6.62Z"/><path class="cls-1" d="m313.53,33.32h23.67v6.05h-15.89v7.73h14.16v5.71h-14.16v7.97h16.08v6.14h-23.86v-33.6Z"/><path class="cls-1" d="m368.12,58.95h-13.68l-2.88,7.97h-7.35l12.63-33.6h9.26l12.58,33.6h-7.68l-2.88-7.97Zm-2.21-5.95l-4.66-12.82-4.66,12.82h9.31Z"/><path class="cls-1" d="m388.75,39.46h-9.41v-6.14h26.59v6.14h-9.41v27.46h-7.78v-27.46Z"/><path class="cls-1" d="m415.15,33.32h7.68v33.6h-7.68v-33.6Z"/><path class="cls-1" d="m431.57,33.32h8.26l7.83,24.34,7.92-24.34h8.06l-11.86,33.6h-8.35l-11.86-33.6Z"/><path class="cls-1" d="m470.35,33.32h23.67v6.05h-15.89v7.73h14.16v5.71h-14.16v7.97h16.08v6.14h-23.86v-33.6Z"/></svg>