<?xml version="1.0" encoding="UTF-8"?><svg id="Layer_1" xmlns="http://www.w3.org/2000/svg" viewBox="0 0 143.51 60"><defs><style>.cls-1{fill:#fff;}</style></defs><g id="nbn"><path class="cls-1" d="m1.66,21.22c0-2.64,1.98-4.78,4.61-4.78s4.78,2.14,4.78,4.78v1.98c2.64-3.79,6.42-7.08,12.69-7.08,9.23,0,14.5,6.26,14.5,15.65v21.75c0,2.64-1.98,4.61-4.61,4.61s-4.78-1.98-4.78-4.61v-18.95c0-6.42-3.13-10.05-8.73-10.05s-9.23,3.79-9.23,10.21v18.78c0,2.64-2.14,4.61-4.78,4.61s-4.61-1.98-4.61-4.61V21.22h.16Z"/><path class="cls-1" d="m44.99,5.57c0-2.64,1.98-4.61,4.61-4.61s4.78,1.98,4.78,4.61v18.12c2.97-4.28,7.25-7.74,14-7.74,9.55,0,18.95,7.58,18.95,21.25h0c0,13.67-9.23,21.42-18.95,21.42s-11.04-3.46-14-7.25v2.14c0,2.47-2.14,4.61-4.78,4.61s-4.61-2.14-4.61-4.61c0,0,0-47.94,0-47.94Zm32.78,31.8h0c0-8.07-5.27-13.18-11.7-13.18s-11.86,5.27-11.86,13.01h0c0,7.91,5.6,13.18,11.86,13.18s11.7-5.11,11.7-13.01"/><path class="cls-1" d="m92.27,21.22c0-2.64,1.98-4.78,4.61-4.78s4.78,2.14,4.78,4.78v1.98c2.64-3.79,6.42-7.08,12.69-7.08,9.23,0,14.5,6.26,14.5,15.65v21.75c0,2.64-1.98,4.61-4.61,4.61s-4.78-1.98-4.78-4.61v-18.95c0-6.42-3.13-10.05-8.73-10.05s-9.23,3.79-9.23,10.21v18.78c0,2.64-2.14,4.61-4.78,4.61s-4.61-1.98-4.61-4.61V21.22h.16Z"/><path class="cls-1" d="m127.03,11.17h0c0-4.12,3.29-7.41,7.41-7.41s7.41,3.29,7.41,7.41h0c0,4.12-3.29,7.41-7.41,7.41s-7.41-3.29-7.41-7.41m14,0h0c0-3.79-2.8-6.75-6.59-6.75s-6.59,2.97-6.59,6.75h0c0,3.79,2.8,6.75,6.59,6.75s6.59-2.97,6.59-6.75m-9.55-3.29c0-.33.33-.66.66-.66h2.8c.99,0,1.81.33,2.31.82.33.33.66.99.66,1.65h0c0,1.15-.66,1.98-1.65,2.31l1.48,1.81s.16.33.16.49c0,.33-.33.66-.66.66s-.49,0-.66-.33l-1.98-2.47h-1.65v2.14c0,.33-.33.66-.66.66s-.66-.33-.66-.66v-6.42h-.16Zm3.46,3.13c.99,0,1.48-.49,1.48-1.15h0c0-.82-.49-1.32-1.48-1.32h-1.98v2.47h1.98Z"/></g></svg>