<?xml version="1.0" encoding="UTF-8"?><svg id="ToyotaFinanceLogo" xmlns="http://www.w3.org/2000/svg" viewBox="0 0 200 31.63"><defs><style>.cls-1{fill:#fff;}</style></defs><path class="cls-1" d="m140.16,3.11c-7.06,0-12.65,5.6-12.65,12.65s5.6,12.65,12.65,12.65,12.65-5.84,12.65-12.65-5.84-12.65-12.65-12.65Zm0,20.68c-3.89,0-7.06-3.65-7.06-8.03s3.16-8.03,7.06-8.03,7.06,3.65,7.06,8.03-3.16,8.03-7.06,8.03Z"/><polygon class="cls-1" points="174.71 4.08 154.27 4.08 154.27 8.46 162.06 8.46 162.06 27.92 167.41 27.92 167.41 8.46 174.71 8.46 174.71 4.08"/><path class="cls-1" d="m182.74,4.08l-9.97,23.84h6.33l1.95-5.35h9.73l1.95,5.35h6.33l-9.73-23.84s-6.57,0-6.57,0Zm3.41,14.35h-3.41l3.41-8.76,3.41,8.76h-3.41Z"/><polygon class="cls-1" points="56.23 8.46 63.53 8.46 63.53 27.92 68.88 27.92 68.88 8.46 76.18 8.46 76.18 4.08 56.23 4.08 56.23 8.46"/><path class="cls-1" d="m90.29,3.11c-7.06,0-12.65,5.6-12.65,12.65s5.6,12.65,12.65,12.65,12.65-5.84,12.65-12.65-5.84-12.65-12.65-12.65Zm0,20.68c-3.89,0-7.06-3.65-7.06-8.03s3.16-8.03,7.06-8.03,7.06,3.65,7.06,8.03-3.16,8.03-7.06,8.03Z"/><polygon class="cls-1" points="115.1 14.05 109.51 4.08 103.18 4.08 112.43 18.68 112.43 27.92 115.1 27.92 117.78 27.92 117.78 18.68 127.27 4.08 121.19 4.08 115.1 14.05"/><path class="cls-1" d="m24.75,30.62h0c12.38,0,22.61-6.23,22.7-14.6,0-8.37-10.15-14.78-22.7-14.87C12.2,1.15,1.96,7.56,2.05,16.02c0,8.37,10.33,14.6,22.7,14.6Zm0-6.23h0c-1.78,0-3.38-3.83-3.47-8.46h6.94c-.09,4.63-1.78,8.46-3.47,8.46Zm-3.21-12.02c.53-3.21,1.78-5.52,3.21-5.52h0c1.42,0,2.58,2.23,3.21,5.52-.98,0-2.05.18-3.21.18h0c-1.07,0-2.14,0-3.21-.18Zm20.21-3.38c1.69,1.87,2.67,4.18,2.49,7.03-.45,6.77-7.75,12.29-17.54,12.91,2.05-1.87,3.74-6.5,3.74-12.2s0-.62,0-.89c7.66-1.16,10.77-4.45,11.31-6.77v-.09ZM24.75,3.11h0c7.3,0,13,2.23,13,4.72s-3.12,3.56-7.66,4.27c-.8-4.9-2.85-8.37-5.34-8.46-2.4,0-4.54,3.47-5.34,8.46-4.54-.71-7.66-2.4-7.66-4.27s5.7-4.72,13-4.72ZM7.75,8.89c.53,2.31,3.65,5.7,11.31,6.77v.89c0,5.7,1.69,10.33,3.74,12.2-9.7-.62-17-6.14-17.54-12.91-.18-2.85.71-5.16,2.49-7.03v.09Z"/></svg>